<?xml version="1.0" standalone="no"?>
<!DOCTYPE svg PUBLIC "-//W3C//DTD SVG 20010904//EN"
 "http://www.w3.org/TR/2001/REC-SVG-20010904/DTD/svg10.dtd">
<svg version="1.0" xmlns="http://www.w3.org/2000/svg"
 width="393.000000pt" height="388.000000pt" viewBox="0 0 393.000000 388.000000"
 preserveAspectRatio="xMidYMid meet">

<g transform="translate(0.000000,388.000000) scale(0.100000,-0.100000)"
fill="#000000" stroke="none">
<path d="M1905 3557 c-189 -50 -215 -175 -51 -249 44 -20 67 -23 171 -23 104
0 127 3 172 23 71 33 98 63 98 114 0 35 -6 46 -39 74 -21 18 -59 40 -84 49
-62 22 -203 28 -267 12z"/>
<path d="M2815 3336 c-22 -22 -25 -32 -20 -59 11 -48 29 -78 76 -126 89 -89
241 -133 290 -84 84 84 -91 277 -263 291 -51 4 -59 2 -83 -22z"/>
<path d="M1101 3325 c-110 -52 -191 -142 -191 -215 0 -67 55 -92 147 -65 107
31 204 112 232 194 16 48 14 59 -14 86 -33 34 -101 34 -174 0z"/>
<path d="M1522 3238 c-197 -31 -384 -252 -342 -406 25 -94 100 -138 223 -130
95 6 187 50 266 128 75 74 105 135 109 225 3 60 0 75 -20 105 -25 38 -92 75
-148 82 -19 3 -59 1 -88 -4z"/>
<path d="M2430 3239 c-157 -47 -173 -228 -35 -385 77 -88 208 -154 308 -154
233 0 281 247 82 428 -100 91 -258 140 -355 111z"/>
<path d="M710 2958 c-69 -42 -125 -115 -151 -198 -31 -100 -9 -160 59 -162
135 -4 304 281 217 367 -32 33 -60 31 -125 -7z"/>
<path d="M3279 2961 c-35 -29 -33 -117 4 -191 85 -167 254 -241 283 -124 22
87 -61 239 -165 306 -52 33 -89 36 -122 9z"/>
<path d="M1928 2871 c-77 -25 -118 -52 -177 -116 -70 -77 -95 -146 -95 -260 0
-114 25 -183 96 -260 l50 -55 243 0 242 0 43 46 c119 129 141 321 54 469 -38
65 -125 140 -192 166 -79 30 -190 35 -264 10z"/>
<path d="M928 2705 c-81 -30 -174 -112 -221 -195 -58 -102 -73 -244 -33 -305
16 -25 17 -25 183 -25 l167 0 47 51 c62 67 97 133 115 219 16 80 11 131 -20
186 -42 75 -143 104 -238 69z"/>
<path d="M3054 2699 c-47 -9 -96 -43 -118 -80 -58 -98 -12 -291 97 -406 l31
-33 183 0 c204 0 189 -6 202 76 32 220 -203 483 -395 443z"/>
<path d="M1257 2216 c-33 -13 -61 -27 -65 -30 -3 -3 91 -6 209 -5 l214 1 -55
26 c-45 21 -73 27 -150 29 -83 3 -102 1 -153 -21z"/>
<path d="M2595 2217 c-99 -33 -87 -36 110 -36 l190 0 -45 21 c-57 26 -197 34
-255 15z"/>
<path d="M1433 1928 c-5 -7 -25 -53 -43 -103 -18 -49 -41 -111 -51 -137 -18
-47 -18 -48 0 -48 13 0 23 11 31 35 11 35 12 35 70 35 58 0 59 0 70 -35 9 -27
17 -35 35 -35 l23 0 -28 73 c-15 39 -39 107 -54 150 -28 78 -36 87 -53 65z
m43 -152 c7 -30 -11 -42 -52 -32 -27 7 -27 13 4 85 l15 36 13 -31 c7 -17 16
-43 20 -58z"/>
<path d="M1890 1920 c-26 -26 -34 -63 -21 -89 7 -11 36 -39 66 -61 56 -41 69
-72 43 -98 -17 -17 -73 -15 -88 3 -10 12 -16 13 -24 5 -17 -17 30 -50 71 -50
48 0 70 14 82 53 16 48 3 74 -60 122 -57 43 -69 66 -48 92 10 11 25 14 56 10
48 -5 65 6 34 22 -32 18 -89 13 -111 -9z"/>
<path d="M3130 1902 c-29 -29 -40 -49 -45 -86 -15 -100 38 -186 115 -186 86 0
139 62 140 163 0 95 -46 147 -131 147 -35 0 -48 -6 -79 -38z m147 -31 c50 -74
17 -202 -54 -209 -46 -5 -69 12 -88 62 -22 58 -14 124 21 161 36 39 90 33 121
-14z"/>
<path d="M1624 1914 c3 -9 6 -74 6 -145 0 -125 1 -129 21 -129 15 0 19 4 15
16 -3 9 -6 74 -6 145 0 125 -1 129 -21 129 -15 0 -19 -4 -15 -16z"/>
<path d="M2060 1915 c0 -11 12 -15 45 -15 l45 0 0 -130 c0 -123 1 -130 20
-130 19 0 20 7 20 130 l0 130 45 0 c33 0 45 4 45 15 0 12 -19 15 -110 15 -91
0 -110 -3 -110 -15z"/>
<path d="M2340 1825 c0 -153 22 -195 104 -195 46 0 82 17 103 49 13 20 18 53
21 139 4 108 3 112 -17 112 -20 0 -21 -5 -21 -109 0 -94 -3 -112 -21 -135 -27
-34 -77 -36 -107 -3 -20 21 -22 34 -22 135 0 105 -1 112 -20 112 -19 0 -20 -7
-20 -105z"/>
<path d="M2664 1914 c3 -9 6 -74 6 -145 l0 -129 69 0 c76 0 109 17 136 70 19
37 19 123 1 159 -25 47 -57 61 -142 61 -65 0 -75 -2 -70 -16z m156 -39 c18
-19 25 -40 28 -83 4 -52 1 -61 -23 -90 -23 -28 -33 -32 -76 -32 l-49 0 0 115
0 115 48 0 c39 0 53 -5 72 -25z"/>
<path d="M2970 1785 c0 -138 1 -145 20 -145 19 0 20 7 20 145 0 138 -1 145
-20 145 -19 0 -20 -7 -20 -145z"/>
<path d="M652 1342 c15 -159 185 -341 336 -359 64 -7 129 21 168 73 27 35 29
43 29 133 -1 82 -5 104 -27 154 l-27 57 -242 0 -242 0 5 -58z"/>
<path d="M1705 1369 c-9 -17 -23 -62 -31 -100 -18 -85 -6 -178 31 -255 32 -65
119 -148 192 -182 50 -23 71 -27 153 -27 112 0 172 18 245 73 92 69 155 196
155 312 0 54 -25 155 -46 188 l-14 22 -335 0 -334 0 -16 -31z"/>
<path d="M2968 1378 c-16 -26 -44 -92 -53 -126 -20 -71 1 -189 43 -235 77 -85
248 -54 363 65 67 69 121 181 127 259 l4 59 -235 0 c-233 0 -235 0 -249 -22z"/>
<path d="M554 1074 c-21 -32 -21 -108 0 -159 39 -94 136 -187 208 -200 31 -6
41 -3 62 19 90 89 -74 366 -216 366 -29 0 -41 -6 -54 -26z"/>
<path d="M3397 1061 c-119 -76 -197 -272 -132 -336 30 -30 56 -31 112 -4 123
60 223 278 159 348 -28 31 -82 27 -139 -8z"/>
<path d="M1323 976 c-63 -21 -100 -52 -119 -101 -36 -94 8 -217 110 -312 203
-188 486 -153 486 60 0 202 -287 415 -477 353z"/>
<path d="M2605 967 c-164 -61 -285 -205 -285 -340 0 -68 17 -106 62 -141 52
-39 118 -51 197 -37 210 39 385 249 341 411 -31 114 -170 161 -315 107z"/>
<path d="M3061 649 c-119 -23 -243 -130 -258 -223 -4 -28 -1 -39 20 -60 68
-68 259 7 339 133 65 103 18 173 -101 150z"/>
<path d="M975 639 c-59 -17 -70 -62 -33 -137 29 -57 86 -106 166 -144 53 -26
72 -30 119 -26 89 8 109 63 55 149 -37 58 -83 96 -157 130 -73 33 -110 40
-150 28z"/>
<path d="M1967 399 c-118 -28 -186 -104 -151 -171 73 -141 472 -142 530 -1 29
69 -31 137 -151 168 -64 16 -167 18 -228 4z"/>
</g>
</svg>
